# xmcd
#
# Track frame offsets:
#	150
#	1553
#	17345
#	29292
#	39792
#	53500
#	64615
#	78122
#	91157
#	103756
#	113659
#
# Disc length: 1754 seconds
#
# Revision: 0
# Processed by: cddbd v1.4PL0 Copyright (c) Steve Scherf et al.
# Submitted via: dBpowerAMP V4.0
#
DISCID=6206d80b
DTITLE=Hayseed Dixie - Hillbilly Tribute to AC/DC
DYEAR=1900
DGENRE=Bluegrass
TTITLE0=Musicmatch Intro
TTITLE1=Hayseed Dixie - You Shook Me All Night Long
TTITLE2=Hayseed Dixie - T'N'T
TTITLE3=Hayseed Dixie - Money Talks
TTITLE4=Hayseed Dixie - Let's Get It Up 
TTITLE5=Hayseed Dixie - Highway To Hell
TTITLE6=Hayseed Dixie - Hells Bells
TTITLE7=Hayseed Dixie - Have A Drink On Me
TTITLE8=Hayseed Dixie - Dirty Deeds Done Dirt Cheap
TTITLE9=Hayseed Dixie - Big Balls
TTITLE10=Hayseed Dixie - Back In Black
EXTD=Hayseed Dixie - Hillbilly Tribute to AC/DC
EXTT0=
EXTT1=
EXTT2=
EXTT3=
EXTT4=
EXTT5=
EXTT6=
EXTT7=
EXTT8=
EXTT9=
EXTT10=
PLAYORDER=
